<svg width="28" height="29" viewBox="0 0 28 29" fill="none" xmlns="http://www.w3.org/2000/svg"><path fill-rule="evenodd" clip-rule="evenodd" d="M25.6552 27.5784C26.5459 26.8927 27.1739 25.9193 27.4461 25.228C27.9943 23.8349 28 22.2545 28 21.2593V8.6592C28 7.66385 27.9944 6.08342 27.4462 4.69048C27.174 3.99914 26.5459 3.02582 25.6554 2.34003C25.141 1.94412 24.5273 1.56545 23.684 1.31564C22.7851 1.04925 21.6779 0.959229 20.3 0.959229H7.70002C6.32201 0.959229 5.21484 1.04925 4.31597 1.31564C3.47274 1.56545 2.85884 1.94401 2.34465 2.34003C1.45401 3.02571 0.825984 3.99914 0.553809 4.69048C0.00556368 6.08342 0 7.66385 0 8.6592V21.2593C0 22.2546 0.00556368 23.835 0.553809 25.228C0.825984 25.9193 1.45412 26.8926 2.34465 27.5784C2.85895 27.9744 3.47274 28.353 4.31597 28.6028C5.21495 28.8692 6.32212 28.9592 7.70002 28.9592H20.2999C21.6779 28.9592 22.7851 28.8692 23.6839 28.6028C24.5272 28.353 25.141 27.9744 25.6552 27.5784ZM14.1109 17.3097C14.9808 17.3097 15.7177 17.5906 16.1372 18.0289C16.3561 18.2576 16.4719 18.4921 16.5084 18.8259C16.579 19.4725 16.5394 20.0293 16.4628 20.9197C16.3899 21.768 16.2515 22.8992 16.0708 24.0514C15.9422 24.8713 15.8378 25.3139 15.7427 25.6308C15.5885 26.1442 15.0121 26.5935 14.1109 26.5935C13.2096 26.5935 12.6332 26.1444 12.479 25.6308C12.3839 25.3139 12.2795 24.8713 12.1509 24.0514C11.9702 22.8992 11.8318 21.768 11.7589 20.9197C11.6824 20.0295 11.6427 19.4726 11.7134 18.8259C11.7498 18.492 11.8656 18.2576 12.0845 18.0289C12.504 17.5906 13.2409 17.3097 14.1109 17.3097ZM14.113 16.3921C12.8494 16.3921 11.8249 15.3779 11.8249 14.1269C11.8249 12.8757 12.8494 11.8615 14.113 11.8615C15.3768 11.8615 16.4012 12.8757 16.4012 14.1269C16.4012 15.3779 15.3768 16.3921 14.113 16.3921ZM4.28202 14.7979C4.34824 9.50025 8.73324 5.20222 14.0847 5.18711C19.519 5.17175 23.9449 9.54414 23.9451 14.9208C23.9451 19.1594 21.1941 22.7732 17.3671 24.1058C17.2734 24.1384 17.1781 24.0613 17.193 23.9639C17.2436 23.6311 17.2914 23.2963 17.3352 22.9672C17.3507 22.851 17.4251 22.7503 17.5337 22.7033C20.5639 21.393 22.6871 18.3979 22.6871 14.9207C22.6871 10.2171 18.8026 6.39484 14.0427 6.4329C9.38669 6.47019 5.58469 10.228 5.5398 14.8375C5.50558 18.3499 7.63813 21.3821 10.6921 22.703C10.8007 22.75 10.8756 22.8503 10.8911 22.9667C10.935 23.2959 10.9828 23.6307 11.0335 23.9639C11.0482 24.0613 10.953 24.1384 10.8592 24.1057C6.99535 22.7602 4.22824 19.0893 4.28202 14.7979ZM19.446 14.9237C19.446 11.9458 16.9407 9.53633 13.907 9.6526C11.1158 9.75963 8.86458 12.0178 8.79102 14.7821C8.74924 16.3529 9.40524 17.7758 10.4735 18.7686C10.5611 18.8501 10.6082 18.9661 10.6015 19.0851C10.5809 19.4473 10.5884 19.7993 10.6128 20.1971C10.6194 20.3029 10.4997 20.3707 10.4114 20.3109C8.65191 19.121 7.50235 17.1094 7.53169 14.8388C7.57635 11.3863 10.3722 8.54182 13.8571 8.40806C17.607 8.26418 20.7041 11.2427 20.7041 14.9237C20.7041 17.1593 19.5616 19.1355 17.8245 20.3107C17.7359 20.3705 17.6159 20.3028 17.6225 20.1969C17.6468 19.7993 17.6544 19.4473 17.6337 19.0851C17.6269 18.966 17.6741 18.85 17.762 18.7684C18.7979 17.8055 19.446 16.4382 19.446 14.9237Z" fill="#2F3F47"/></svg>