<svg width="113" height="16" viewBox="0 0 113 16" fill="none" xmlns="http://www.w3.org/2000/svg"><path d="M7.73989 9.20376H3.28492L2.21509 12.3627H0.328125L4.5478 0.674347H6.50827L10.7279 12.3627H8.80878L7.73989 9.20376ZM3.74629 7.74597H7.27758L5.53678 2.61825H5.48803L3.74629 7.74597Z" fill="#2F3F47"/><path d="M19.8391 8.10259C19.8391 10.7506 18.4218 12.4519 16.2831 12.4519C15.069 12.4519 14.1047 11.9087 13.6021 10.961H13.5616V15.1816H11.8125V3.8416H13.5055V5.25892H13.5377C14.0239 4.34438 15.0607 3.75247 16.2509 3.75247C18.4135 3.75247 19.8391 5.46202 19.8391 8.10259ZM18.0413 8.10259C18.0413 6.37741 17.1497 5.2432 15.7894 5.2432C14.4531 5.2432 13.5541 6.40132 13.5541 8.10259C13.5541 9.81948 14.4531 10.9693 15.7894 10.9693C17.1498 10.9693 18.0413 9.84348 18.0413 8.10259Z" fill="#2F3F47"/><path d="M29.218 8.10259C29.218 10.7506 27.8007 12.4519 25.662 12.4519C24.4479 12.4519 23.4837 11.9087 22.981 10.961H22.9405V15.1816H21.1914V3.8416H22.8844V5.25892H22.9166C23.4028 4.34438 24.4396 3.75247 25.6298 3.75247C27.7925 3.75247 29.218 5.46202 29.218 8.10259ZM27.4203 8.10259C27.4203 6.37741 26.5287 5.2432 25.1684 5.2432C23.8321 5.2432 22.9331 6.40132 22.9331 8.10259C22.9331 9.81948 23.8321 10.9693 25.1684 10.9693C26.5287 10.9693 27.4203 9.84348 27.4203 8.10259Z" fill="#2F3F47"/><path d="M30.6367 0.674347H32.3867V12.3627H30.6367V0.674347Z" fill="#2F3F47"/><path d="M41.4913 9.85995C41.256 11.4069 39.7495 12.4684 37.8222 12.4684C35.3433 12.4684 33.8047 10.8076 33.8047 8.14306C33.8047 5.47031 35.3516 3.73685 37.7486 3.73685C40.1061 3.73685 41.5887 5.35633 41.5887 7.93995V8.5392H35.5703V8.64489C35.5703 10.1026 36.4858 11.0585 37.8626 11.0585C38.8341 11.0585 39.596 10.5972 39.8304 9.86005H41.4913V9.85995ZM35.5785 7.3168H39.8387C39.7982 6.01261 38.9637 5.15407 37.7486 5.15407C36.5418 5.15407 35.6677 6.02908 35.5785 7.3168Z" fill="#2F3F47"/><path d="M50.9057 0.674347C53.1732 0.674347 54.7532 2.23774 54.7532 4.51444C54.7532 6.79849 53.141 8.36922 50.8488 8.36922H48.3377V12.3628H46.5234V0.674347H50.9057ZM48.3377 6.84715H50.4195C51.9985 6.84715 52.8975 5.99604 52.8975 4.52272C52.8975 3.04846 51.9985 2.20517 50.4278 2.20517H48.3377V6.84715Z" fill="#2F3F47"/><path d="M55.3906 8.10259C55.3906 5.42156 56.9696 3.73676 59.4319 3.73676C61.9025 3.73676 63.4742 5.42146 63.4742 8.10259C63.4742 10.791 61.9108 12.4684 59.4319 12.4684C56.954 12.4684 55.3906 10.7911 55.3906 8.10259ZM61.6921 8.10259C61.6921 6.26344 60.8493 5.17798 59.4319 5.17798C58.0146 5.17798 57.1718 6.27172 57.1718 8.10259C57.1718 9.94908 58.0146 11.0263 59.4319 11.0263C60.8493 11.0263 61.6921 9.94918 61.6921 8.10259Z" fill="#2F3F47"/><path d="M64.7031 8.10258C64.7031 5.47021 66.1525 3.75237 68.2665 3.75237C69.4899 3.75237 70.454 4.31943 70.9393 5.25882H70.9724V0.674255H72.7298V12.3626H71.0285V10.9132H70.9963C70.4945 11.8847 69.522 12.4519 68.2831 12.4519C66.1525 12.4519 64.7031 10.735 64.7031 8.10258ZM66.4926 8.10258C66.4926 9.85167 67.3842 10.9693 68.7444 10.9693C70.0891 10.9693 70.988 9.8351 70.988 8.10258C70.988 6.38475 70.0891 5.2432 68.7444 5.2432C67.3842 5.24329 66.4926 6.36913 66.4926 8.10258Z" fill="#2F3F47"/><path d="M80.1742 6.77355C80.0207 5.87463 79.3158 5.20282 78.1659 5.20282C76.8213 5.20282 75.9297 6.32875 75.9297 8.10268C75.9297 9.91699 76.8296 11.0099 78.1816 11.0099C79.267 11.0099 79.9802 10.4676 80.1742 9.47953H81.8589C81.665 11.2691 80.2312 12.4685 78.1659 12.4685C75.7358 12.4685 74.1484 10.8077 74.1484 8.10268C74.1484 5.45374 75.7357 3.73685 78.1494 3.73685C80.3359 3.73685 81.6971 5.11369 81.8433 6.77365H80.1742V6.77355Z" fill="#2F3F47"/><path d="M82.9297 9.9409C82.9297 8.45101 84.0712 7.55116 86.0961 7.42984L88.4288 7.30024V6.65224C88.4288 5.70466 87.8056 5.1697 86.7449 5.1697C85.7725 5.1697 85.0923 5.632 84.9545 6.36913H83.3185C83.3672 4.82965 84.8001 3.73676 86.7927 3.73676C88.8259 3.73676 90.1705 4.84612 90.1705 6.52264V12.3627H88.4941V10.961H88.4536C87.9591 11.9086 86.882 12.5088 85.7643 12.5088C84.0961 12.5089 82.9297 11.4721 82.9297 9.9409ZM88.4288 9.17158V8.5153L86.3314 8.6449C85.2863 8.71012 84.6953 9.1633 84.6953 9.89214C84.6953 10.6376 85.3111 11.1238 86.2505 11.1238C87.4738 11.1238 88.4288 10.2809 88.4288 9.17158Z" fill="#2F3F47"/><path d="M95.0551 3.74512C96.943 3.74512 98.295 4.78926 98.3355 6.29571H96.6912C96.6186 5.54295 95.9789 5.08159 95.0064 5.08159C94.0589 5.08159 93.4274 5.5182 93.4274 6.18267C93.4274 6.69279 93.8484 7.03283 94.7316 7.25156L96.1654 7.58427C97.8823 7.99698 98.5303 8.62841 98.5303 9.87651C98.5303 11.4151 97.0726 12.4684 94.9908 12.4684C92.9816 12.4684 91.6296 11.439 91.5 9.88385H93.2325C93.3548 10.7018 94.0101 11.1394 95.0717 11.1394C96.1168 11.1394 96.7729 10.7101 96.7729 10.03C96.7729 9.50333 96.4485 9.22022 95.5579 8.99321L94.0349 8.62098C92.4954 8.2478 91.7178 7.46201 91.7178 6.27999C91.7178 4.77354 93.0707 3.74512 95.0551 3.74512Z" fill="#2F3F47"/><path d="M102.328 1.82455V3.84159H103.949V5.22672H102.328V9.92432C102.328 10.6541 102.653 10.9942 103.365 10.9942C103.544 10.9942 103.827 10.9693 103.941 10.9537V12.3305C103.747 12.3793 103.358 12.4114 102.969 12.4114C101.244 12.4114 100.571 11.7634 100.571 10.1109V5.22662H99.332V3.84159H100.571V1.82455H102.328Z" fill="#2F3F47"/><path d="M108.653 3.74513C110.541 3.74513 111.893 4.78927 111.933 6.29572H110.289C110.216 5.54297 109.577 5.0816 108.604 5.0816C107.657 5.0816 107.025 5.51822 107.025 6.18269C107.025 6.6928 107.446 7.03285 108.329 7.25158L109.763 7.58429C111.48 7.99699 112.128 8.62843 112.128 9.87652C112.128 11.4152 110.67 12.4684 108.588 12.4684C106.579 12.4684 105.227 11.439 105.098 9.88386H106.83C106.952 10.7018 107.608 11.1394 108.669 11.1394C109.714 11.1394 110.371 10.7101 110.371 10.03C110.371 9.50335 110.046 9.22024 109.156 8.99323L107.633 8.62099C106.093 8.24782 105.315 7.46203 105.315 6.28C105.315 4.77356 106.668 3.74513 108.653 3.74513Z" fill="#2F3F47"/></svg>