<svg width="114" height="17" viewBox="0 0 114 17" fill="none" xmlns="http://www.w3.org/2000/svg"><path d="M56.3748 12.7092H54.9531V1.88968H58.7237C59.6611 1.88968 60.4724 2.19442 61.1575 2.8039C61.8426 3.41339 62.1851 4.18153 62.1851 5.10835C62.1851 6.03517 61.8426 6.80331 61.1575 7.41279C60.4724 8.02227 59.6611 8.32701 58.7237 8.32701H56.3748V12.7092ZM56.3748 6.99723H58.7546C59.3521 6.99723 59.8311 6.80079 60.1917 6.4079C60.5523 6.01501 60.7325 5.58183 60.7325 5.10835C60.7325 4.63486 60.5523 4.20168 60.1917 3.80879C59.8311 3.4159 59.3521 3.21946 58.7546 3.21946H56.3748V6.99723ZM63.3639 6.19635C64.0953 5.44079 65.0277 5.06301 66.1609 5.06301C67.2941 5.06301 68.2264 5.43827 68.9579 6.18879C69.6893 6.93931 70.055 7.87871 70.055 9.00701C70.055 10.1353 69.6893 11.0747 68.9579 11.8252C68.2264 12.5758 67.2941 12.951 66.1609 12.951C65.0277 12.951 64.0953 12.5758 63.3639 11.8252C62.6325 11.0747 62.2667 10.1353 62.2667 9.00701C62.2667 7.87871 62.6325 6.94183 63.3639 6.19635ZM64.4147 10.9563C64.9092 11.4399 65.4913 11.6817 66.1609 11.6817C66.8305 11.6817 67.41 11.4374 67.8993 10.9488C68.3887 10.4602 68.6334 9.81294 68.6334 9.00701C68.6334 8.20108 68.3887 7.55383 67.8993 7.06523C67.41 6.57664 66.8305 6.33235 66.1609 6.33235C65.4913 6.33235 64.9118 6.57664 64.4224 7.06523C63.9331 7.55383 63.6884 8.20108 63.6884 9.00701C63.6884 9.81294 63.9305 10.4627 64.4147 10.9563ZM74.3399 12.951C73.3612 12.951 72.5164 12.5732 71.8056 11.8177C71.0947 11.0621 70.7393 10.1252 70.7393 9.00701C70.7393 7.88878 71.0947 6.9519 71.8056 6.19635C72.5164 5.44079 73.3612 5.06301 74.3399 5.06301C74.9168 5.06301 75.4345 5.1839 75.8929 5.42568C76.3513 5.66746 76.6939 5.96968 76.9205 6.33235H76.9823L76.9205 5.30479V1.88968H78.3422V12.7092H76.9823V11.6817H76.9205C76.6939 12.0443 76.3513 12.3466 75.8929 12.5883C75.4345 12.8301 74.9168 12.951 74.3399 12.951ZM74.5717 11.6817C75.2413 11.6817 75.8105 11.4399 76.2792 10.9563C76.748 10.4728 76.9823 9.82302 76.9823 9.00701C76.9823 8.19101 76.748 7.54124 76.2792 7.05768C75.8105 6.57412 75.2413 6.33235 74.5717 6.33235C73.9123 6.33235 73.3457 6.57664 72.8718 7.06523C72.3979 7.55383 72.161 8.20108 72.161 9.00701C72.161 9.81294 72.3979 10.4602 72.8718 10.9488C73.3457 11.4374 73.9123 11.6817 74.5717 11.6817ZM83.276 12.951C82.1428 12.951 81.2105 12.5758 80.4791 11.8252C79.7476 11.0747 79.3819 10.1353 79.3819 9.00701C79.3819 7.87871 79.7476 6.93931 80.4791 6.18879C81.2105 5.43827 82.1428 5.06301 83.276 5.06301C84.1208 5.06301 84.8213 5.26449 85.3777 5.66746C85.934 6.07042 86.3409 6.57916 86.5984 7.19368L85.3004 7.72257C84.9089 6.79575 84.2032 6.33235 83.1833 6.33235C82.5549 6.33235 82.0012 6.5842 81.5221 7.0879C81.0431 7.59161 80.8036 8.2313 80.8036 9.00701C80.8036 9.78272 81.0431 10.4224 81.5221 10.9261C82.0012 11.4298 82.5549 11.6817 83.1833 11.6817C84.2444 11.6817 84.9759 11.2183 85.3777 10.2915L86.6448 10.8203C86.3872 11.4248 85.9726 11.931 85.4008 12.339C84.8291 12.747 84.1208 12.951 83.276 12.951ZM90.0179 12.951C89.2143 12.951 88.5421 12.7243 88.0013 12.271C87.4604 11.8177 87.19 11.2183 87.19 10.4728C87.19 9.66686 87.5094 9.03472 88.1481 8.57635C88.7868 8.11797 89.5749 7.88879 90.5124 7.88879C91.3469 7.88879 92.0319 8.0399 92.5676 8.34212V8.13057C92.5676 7.58657 92.3771 7.15087 91.9959 6.82346C91.6147 6.49605 91.146 6.33235 90.5897 6.33235C90.1776 6.33235 89.8041 6.42805 89.4693 6.61946C89.1345 6.81086 88.9053 7.07279 88.7817 7.40523L87.4836 6.86123C87.6587 6.41797 88.0039 6.00746 88.519 5.62968C89.0341 5.2519 89.714 5.06301 90.5588 5.06301C91.5271 5.06301 92.3307 5.34005 92.9694 5.89412C93.6081 6.4482 93.9275 7.22893 93.9275 8.23635V12.7092H92.5676V11.6817H92.5058C91.9392 12.5279 91.1099 12.951 90.0179 12.951ZM90.2497 11.6817C90.8369 11.6817 91.37 11.4676 91.8491 11.0395C92.3281 10.6113 92.5676 10.1051 92.5676 9.52079C92.1659 9.19842 91.5632 9.03723 90.7596 9.03723C90.0694 9.03723 89.5492 9.18331 89.1989 9.47546C88.8486 9.76761 88.6735 10.1101 88.6735 10.503C88.6735 10.8657 88.8332 11.1528 89.1525 11.3643C89.4719 11.5759 89.8376 11.6817 90.2497 11.6817ZM98.0887 12.951C97.2439 12.951 96.546 12.7495 95.9948 12.3466C95.4437 11.9436 95.0393 11.4399 94.7818 10.8355L96.0489 10.3217C96.4507 11.2485 97.1358 11.7119 98.1042 11.7119C98.5471 11.7119 98.9103 11.6162 99.1936 11.4248C99.4769 11.2334 99.6185 10.9815 99.6185 10.6692C99.6185 10.1857 99.2734 9.85827 98.5832 9.68701L97.0533 9.32435C96.5692 9.20346 96.1107 8.97427 95.678 8.63679C95.2453 8.29931 95.029 7.84346 95.029 7.26923C95.029 6.61442 95.3252 6.08301 95.9176 5.67501C96.5099 5.26701 97.213 5.06301 98.0269 5.06301C98.6965 5.06301 99.294 5.2116 99.8194 5.50879C100.345 5.80598 100.721 6.2316 100.948 6.78568L99.7113 7.28435C99.4331 6.62953 98.8562 6.30212 97.9805 6.30212C97.5582 6.30212 97.2027 6.38775 96.9143 6.55901C96.6258 6.73027 96.4816 6.96197 96.4816 7.25412C96.4816 7.67724 96.8164 7.96434 97.486 8.11546L98.985 8.46301C99.6958 8.6242 100.221 8.90123 100.561 9.29412C100.901 9.68701 101.071 10.1303 101.071 10.6239C101.071 11.2888 100.793 11.8429 100.237 12.2861C99.6804 12.7294 98.9644 12.951 98.0887 12.951ZM105.325 12.8301C104.532 12.8301 103.927 12.6236 103.509 12.2106C103.092 11.7975 102.883 11.2132 102.883 10.4577V6.57412H101.555V5.30479H102.883V3.03812H104.305V5.30479H106.16V6.57412H104.305V10.3519C104.305 11.1578 104.645 11.5608 105.325 11.5608C105.583 11.5608 105.799 11.5205 105.974 11.4399L106.469 12.6337C106.16 12.7646 105.778 12.8301 105.325 12.8301ZM110.305 12.951C109.46 12.951 108.763 12.7495 108.211 12.3466C107.66 11.9436 107.256 11.4399 106.998 10.8355L108.265 10.3217C108.667 11.2485 109.352 11.7119 110.321 11.7119C110.764 11.7119 111.127 11.6162 111.41 11.4248C111.693 11.2334 111.835 10.9815 111.835 10.6692C111.835 10.1857 111.49 9.85827 110.8 9.68701L109.27 9.32435C108.786 9.20346 108.327 8.97427 107.895 8.63679C107.462 8.29931 107.246 7.84346 107.246 7.26923C107.246 6.61442 107.542 6.08301 108.134 5.67501C108.726 5.26701 109.43 5.06301 110.243 5.06301C110.913 5.06301 111.511 5.2116 112.036 5.50879C112.561 5.80598 112.937 6.2316 113.164 6.78568L111.928 7.28435C111.65 6.62953 111.073 6.30212 110.197 6.30212C109.775 6.30212 109.419 6.38775 109.131 6.55901C108.842 6.73027 108.698 6.96197 108.698 7.25412C108.698 7.67724 109.033 7.96434 109.703 8.11546L111.202 8.46301C111.912 8.6242 112.438 8.90123 112.778 9.29412C113.118 9.68701 113.288 10.1303 113.288 10.6239C113.288 11.2888 113.01 11.8429 112.453 12.2861C111.897 12.7294 111.181 12.951 110.305 12.951Z" fill="#2F3F47"/><path d="M0.960938 6.74742C0.960938 3.32381 3.89459 0.5495 7.39566 0.5495C9.32728 0.5495 10.7036 1.29325 11.7418 2.2613L10.5104 3.45367C9.77397 2.76894 8.77194 2.23769 7.39566 2.23769C4.84833 2.23769 2.85634 4.24464 2.85634 6.73561C2.85634 9.22658 4.84833 11.2335 7.39566 11.2335C9.04961 11.2335 9.99128 10.5842 10.5949 9.99394C11.0899 9.50992 11.4159 8.81339 11.5366 7.86894H7.39566V6.18075H13.2267C13.2871 6.48769 13.3233 6.84186 13.3233 7.24325C13.3233 8.51825 12.9732 10.0884 11.8263 11.1981C10.7036 12.3314 9.27899 12.9335 7.39566 12.9335C3.89459 12.9335 0.960938 10.1592 0.960938 6.74742ZM17.9713 5.03561C20.2289 5.03561 22.0639 6.712 22.0639 9.02589C22.0639 11.328 20.2289 13.0162 17.9713 13.0162C15.7137 13.0162 13.8787 11.328 13.8787 9.02589C13.8787 6.712 15.7137 5.03561 17.9713 5.03561ZM17.9713 11.4342C19.2027 11.4342 20.2772 10.4426 20.2772 9.01408C20.2772 7.5738 19.2027 6.59394 17.9713 6.59394C16.7278 6.59394 15.6654 7.5738 15.6654 9.01408C15.6654 10.4426 16.7399 11.4342 17.9713 11.4342ZM26.9051 5.03561C29.1626 5.03561 30.9977 6.712 30.9977 9.02589C30.9977 11.328 29.1626 13.0162 26.9051 13.0162C24.6475 13.0162 22.8124 11.328 22.8124 9.02589C22.8124 6.712 24.6475 5.03561 26.9051 5.03561ZM26.9051 11.4342C28.1365 11.4342 29.2109 10.4426 29.2109 9.01408C29.2109 7.5738 28.1485 6.59394 26.9051 6.59394C25.6616 6.59394 24.5992 7.5738 24.5992 9.01408C24.5992 10.4426 25.6737 11.4342 26.9051 11.4342ZM37.867 5.16547H39.5813V12.3314C39.5813 15.2828 37.8067 16.487 35.706 16.487C33.7261 16.487 32.5309 15.1884 32.0842 14.1259L33.6416 13.4884C33.9193 14.1377 34.5953 14.9051 35.694 14.9051C37.034 14.9051 37.867 14.0905 37.867 12.5676V11.9891H37.8067C37.4083 12.4731 36.6356 12.8981 35.6577 12.8981C33.6175 12.8981 31.7462 11.1509 31.7462 8.91964C31.7462 6.66478 33.6175 4.91756 35.6577 4.91756C36.6356 4.91756 37.4083 5.34256 37.8067 5.81478H37.867V5.16547ZM35.8147 11.328C37.034 11.328 37.9998 10.3245 37.9878 8.91964C37.9878 7.51478 37.034 6.48769 35.8147 6.48769C34.5833 6.48769 33.545 7.51478 33.545 8.91964C33.545 10.3127 34.5833 11.328 35.8147 11.328ZM40.8007 12.7446V1.02172H42.5874V12.7446H40.8007ZM47.501 11.4342C48.4185 11.4342 49.0463 10.9974 49.5171 10.3363L50.9055 11.2453C50.4467 11.8946 49.3723 13.0162 47.501 13.0162C45.1831 13.0162 43.4567 11.2571 43.4567 9.02589C43.4567 6.65297 45.2072 5.03561 47.3078 5.03561C49.4206 5.03561 50.4588 6.67658 50.7968 7.57381L50.9779 8.02242L45.5211 10.2301C45.9436 11.021 46.5835 11.4342 47.501 11.4342ZM47.3682 6.57033C46.4507 6.57033 45.1831 7.36131 45.2313 8.89603L48.8773 7.42033C48.6841 6.91269 48.0805 6.57033 47.3682 6.57033Z" fill="#2F3F47"/></svg>