<svg width="29" height="29" viewBox="0 0 29 29" fill="none" xmlns="http://www.w3.org/2000/svg"><path d="M12.8516 9.86832V14.1113V15.8072V20.0501H16.3516V15.8072V14.1113V9.86832H12.8516Z" fill="#2F3F47"/><path d="M2.35156 15.7547C3.31806 15.7547 4.10156 14.9712 4.10156 14.0047C4.10156 13.0382 3.31806 12.2547 2.35156 12.2547C1.38506 12.2547 0.601562 13.0382 0.601562 14.0047C0.601562 14.9712 1.38506 15.7547 2.35156 15.7547Z" fill="#2F3F47"/><path d="M2.35156 17.6638C3.31806 17.6638 4.10156 16.8803 4.10156 15.9138C4.10156 14.9473 3.31806 14.1638 2.35156 14.1638C1.38506 14.1638 0.601562 14.9473 0.601562 15.9138C0.601562 16.8803 1.38506 17.6638 2.35156 17.6638Z" fill="#2F3F47"/><path d="M4.10156 14.0047H0.601562V15.9138H4.10156V14.0047Z" fill="#2F3F47"/><path d="M26.8516 17.6638C27.8181 17.6638 28.6016 16.8803 28.6016 15.9138C28.6016 14.9473 27.8181 14.1638 26.8516 14.1638C25.8851 14.1638 25.1016 14.9473 25.1016 15.9138C25.1016 16.8803 25.8851 17.6638 26.8516 17.6638Z" fill="#2F3F47"/><path d="M26.8516 15.7547C27.8181 15.7547 28.6016 14.9712 28.6016 14.0047C28.6016 13.0382 27.8181 12.2547 26.8516 12.2547C25.8851 12.2547 25.1016 13.0382 25.1016 14.0047C25.1016 14.9712 25.8851 15.7547 26.8516 15.7547Z" fill="#2F3F47"/><path d="M25.1016 15.9138H28.6016V14.0047H25.1016V15.9138Z" fill="#2F3F47"/><path d="M8.39844 21.482C9.36494 21.482 10.1484 20.6985 10.1484 19.732C10.1484 18.7655 9.36494 17.982 8.39844 17.982C7.43194 17.982 6.64844 18.7655 6.64844 19.732C6.64844 20.6985 7.43194 21.482 8.39844 21.482Z" fill="#2F3F47"/><path d="M8.39844 23.3911C9.36494 23.3911 10.1484 22.6076 10.1484 21.6411C10.1484 20.6746 9.36494 19.8911 8.39844 19.8911C7.43194 19.8911 6.64844 20.6746 6.64844 21.6411C6.64844 22.6076 7.43194 23.3911 8.39844 23.3911Z" fill="#2F3F47"/><path d="M10.1484 19.732H6.64844V21.6411H10.1484V19.732Z" fill="#2F3F47"/><path d="M8.39844 10.0274C9.36494 10.0274 10.1484 9.2439 10.1484 8.2774C10.1484 7.31091 9.36494 6.5274 8.39844 6.5274C7.43194 6.5274 6.64844 7.31091 6.64844 8.2774C6.64844 9.2439 7.43194 10.0274 8.39844 10.0274Z" fill="#2F3F47"/><path d="M8.39844 16.232C9.36494 16.232 10.1484 15.4485 10.1484 14.482C10.1484 13.5155 9.36494 12.732 8.39844 12.732C7.43194 12.732 6.64844 13.5155 6.64844 14.482C6.64844 15.4485 7.43194 16.232 8.39844 16.232Z" fill="#2F3F47"/><path d="M10.1484 8.2774H6.64844V14.5217H10.1484V8.2774Z" fill="#2F3F47"/><path d="M20.8047 11.9365C21.7712 11.9365 22.5547 11.153 22.5547 10.1865C22.5547 9.22 21.7712 8.43649 20.8047 8.43649C19.8382 8.43649 19.0547 9.22 19.0547 10.1865C19.0547 11.153 19.8382 11.9365 20.8047 11.9365Z" fill="#2F3F47"/><path d="M20.8047 10.0274C21.7712 10.0274 22.5547 9.2439 22.5547 8.2774C22.5547 7.31091 21.7712 6.5274 20.8047 6.5274C19.8382 6.5274 19.0547 7.31091 19.0547 8.2774C19.0547 9.2439 19.8382 10.0274 20.8047 10.0274Z" fill="#2F3F47"/><path d="M19.0547 10.1865H22.5547V8.2774H19.0547V10.1865Z" fill="#2F3F47"/><path d="M14.6016 6.36832C15.5681 6.36832 16.3516 5.58482 16.3516 4.61832C16.3516 3.65182 15.5681 2.86832 14.6016 2.86832C13.6351 2.86832 12.8516 3.65182 12.8516 4.61832C12.8516 5.58482 13.6351 6.36832 14.6016 6.36832Z" fill="#2F3F47"/><path d="M14.6016 4.45923C15.5681 4.45923 16.3516 3.67573 16.3516 2.70923C16.3516 1.74273 15.5681 0.959229 14.6016 0.959229C13.6351 0.959229 12.8516 1.74273 12.8516 2.70923C12.8516 3.67573 13.6351 4.45923 14.6016 4.45923Z" fill="#2F3F47"/><path d="M12.8516 4.61832H16.3516V2.70923L12.8516 2.70923V4.61832Z" fill="#2F3F47"/><path d="M14.6016 28.9592C15.5681 28.9592 16.3516 28.1757 16.3516 27.2092C16.3516 26.2427 15.5681 25.4592 14.6016 25.4592C13.6351 25.4592 12.8516 26.2427 12.8516 27.2092C12.8516 28.1757 13.6351 28.9592 14.6016 28.9592Z" fill="#2F3F47"/><path d="M14.6016 27.0501C15.5681 27.0501 16.3516 26.2666 16.3516 25.3001C16.3516 24.3336 15.5681 23.5501 14.6016 23.5501C13.6351 23.5501 12.8516 24.3336 12.8516 25.3001C12.8516 26.2666 13.6351 27.0501 14.6016 27.0501Z" fill="#2F3F47"/><path d="M12.8516 27.2092H16.3516V25.3001H12.8516V27.2092Z" fill="#2F3F47"/><path d="M20.8047 23.3911C21.7712 23.3911 22.5547 22.6076 22.5547 21.6411C22.5547 20.6746 21.7712 19.8911 20.8047 19.8911C19.8382 19.8911 19.0547 20.6746 19.0547 21.6411C19.0547 22.6076 19.8382 23.3911 20.8047 23.3911Z" fill="#2F3F47"/><path d="M20.8047 17.1865C21.7712 17.1865 22.5547 16.403 22.5547 15.4365C22.5547 14.47 21.7712 13.6865 20.8047 13.6865C19.8382 13.6865 19.0547 14.47 19.0547 15.4365C19.0547 16.403 19.8382 17.1865 20.8047 17.1865Z" fill="#2F3F47"/><path d="M19.0547 21.6411H22.5547V15.4365H19.0547V21.6411Z" fill="#2F3F47"/><path d="M14.6016 11.6183C15.5681 11.6183 16.3516 10.8348 16.3516 9.86832C16.3516 8.90182 15.5681 8.11832 14.6016 8.11832C13.6351 8.11832 12.8516 8.90182 12.8516 9.86832C12.8516 10.8348 13.6351 11.6183 14.6016 11.6183Z" fill="#2F3F47"/><path d="M14.6016 21.8001C15.5681 21.8001 16.3516 21.0166 16.3516 20.0501C16.3516 19.0836 15.5681 18.3001 14.6016 18.3001C13.6351 18.3001 12.8516 19.0836 12.8516 20.0501C12.8516 21.0166 13.6351 21.8001 14.6016 21.8001Z" fill="#2F3F47"/></svg>