<svg width="64" height="64" viewBox="0 0 64 64" fill="none" xmlns="http://www.w3.org/2000/svg">
<g clip-path="url(#clip0_2000_9592)">
<rect width="64" height="64" fill="#999999"/>
<path fill-rule="evenodd" clip-rule="evenodd" d="M0 0H64V64H0V0Z" fill="#999999"/>
<mask id="mask0_2000_9592" style="mask-type:luminance" maskUnits="userSpaceOnUse" x="13" y="13" width="38" height="38">
<path d="M50.5 50.5H13.5V13.5H50.5V50.5Z" fill="white"/>
</mask>
<g mask="url(#mask0_2000_9592)">
<path d="M31.9996 13.5004C31.8927 13.4991 31.7854 13.5013 31.6781 13.5032C31.6462 13.5017 31.6127 13.5025 31.5825 13.501C31.5188 13.501 31.4557 13.5043 31.3928 13.5103C25.2473 13.7095 19.851 16.9201 16.6333 21.7092C16.5973 21.7491 16.5669 21.7943 16.5439 21.8435C14.6159 24.7677 13.4946 28.2691 13.5 32.0265C13.5072 36.968 15.438 41.6109 18.9373 45.0998C22.2988 48.4518 26.7219 50.3532 31.4456 50.4913C31.5085 50.4969 31.5806 50.493 31.6357 50.5C31.6682 50.5 31.7007 50.4991 31.733 50.4973C31.8308 50.4989 31.9282 50.4991 32.0259 50.4993C36.9674 50.4924 41.6103 48.5614 45.0994 45.0624C48.5887 41.5634 50.5062 36.9148 50.4992 31.9733C50.4938 28.2198 49.3641 24.7247 47.4312 21.8073C47.4064 21.752 47.3725 21.702 47.3314 21.6585C44.003 16.7389 38.3712 13.5008 31.9996 13.5004ZM31.3722 14.6012C31.4762 14.5926 31.5804 14.5863 31.6851 14.582C32.7077 14.6922 33.8027 16.4904 34.6344 19.4405C34.8175 20.0895 34.9844 20.7803 35.1353 21.5068L28.0535 21.517C28.2019 20.7898 28.367 20.0986 28.5481 19.4491C29.3417 16.6038 30.3827 14.8273 31.3722 14.6012ZM36.2324 21.5053C36.0651 20.6736 35.8774 19.8856 35.6698 19.1488C35.1195 17.1969 34.466 15.731 33.7312 14.7828C36.6953 15.4907 39.2847 17.9725 41.0245 21.4985L36.2324 21.5053ZM22.9447 21.5244C24.475 18.4006 26.673 16.092 29.2104 15.105C28.5711 16.0527 27.9993 17.4121 27.5119 19.1604C27.3065 19.8976 27.1209 20.6867 26.9563 21.5187L22.9447 21.5244ZM42.1962 21.4967C41.021 18.9683 39.4349 16.8951 37.5837 15.4938C40.918 16.6249 43.8026 18.7398 45.8896 21.4914L42.1962 21.4967ZM18.0796 21.5314C20.1588 18.7738 23.0369 16.6505 26.3676 15.5099C24.5206 16.9166 22.9407 18.9941 21.7726 21.5261L18.0796 21.5314ZM42.6603 22.5716L46.6431 22.566C48.3063 25.1391 49.3104 28.1762 49.4145 31.4372L44.3966 31.4444C44.3298 28.2116 43.7047 25.1848 42.6603 22.5716ZM36.4326 22.5808L41.5149 22.5734C42.5976 25.1472 43.2517 28.1847 43.321 31.4458L37.1802 31.4548C37.1496 28.2804 36.891 25.2423 36.4326 22.5808ZM27.8502 22.5927L35.3413 22.582C35.8095 25.2247 36.0735 28.2671 36.1043 31.4561L27.1125 31.4692C27.1341 28.2802 27.3898 25.237 27.8502 22.5927ZM22.4577 22.6005L26.7591 22.5944C26.308 25.2578 26.0584 28.2959 26.037 31.4707L20.6766 31.4783C20.7366 28.2171 21.3824 25.1774 22.4577 22.6005ZM17.3295 22.6081L21.3119 22.6024C20.2753 25.2185 19.6588 28.2469 19.6011 31.4801L14.5831 31.4869C14.6778 28.2256 15.6733 25.1856 17.3295 22.6081ZM44.3983 32.52L49.4163 32.513C49.3279 35.5964 48.4416 38.5438 46.8557 41.1172L42.8095 41.1227C43.7958 38.5198 44.3446 35.5814 44.3983 32.52ZM37.1818 32.5303L43.3226 32.5215C43.2663 35.6056 42.6891 38.5512 41.6549 41.1244L36.5051 41.1318C36.9274 38.5354 37.1611 35.5962 37.1818 32.5303ZM27.1143 32.5447L36.106 32.5319C36.0852 35.611 35.8463 38.5539 35.4153 41.1334L27.8297 41.1443C27.3912 38.5662 27.1439 35.6239 27.1143 32.5447ZM20.6784 32.5541L26.0385 32.5463C26.0677 35.612 26.31 38.5508 26.7396 41.146L22.3707 41.1523C21.3288 38.5819 20.7432 35.6379 20.6784 32.5541ZM14.5845 32.5626L19.6023 32.5556C19.6648 35.6169 20.2221 38.5535 21.2161 41.154L17.1696 41.1595C15.5765 38.5909 14.6819 35.6461 14.5845 32.5626ZM42.368 42.199L46.1354 42.1939C45.5975 42.9361 44.9975 43.6414 44.338 44.3029C42.4295 46.2168 40.1548 47.6327 37.6709 48.4847C38.8376 47.5938 39.9124 46.4189 40.8572 44.9847C41.4253 44.1216 41.9302 43.1886 42.368 42.199ZM36.3156 42.2079L41.185 42.2007C40.8196 42.974 40.4101 43.707 39.9585 44.3929C38.2493 46.9883 36.1012 48.6514 33.7805 49.2122C34.5123 48.2615 35.162 46.794 35.7066 44.8406C35.9347 44.0227 36.1382 43.1415 36.3156 42.2079ZM28.0278 42.2196L35.2202 42.2093C35.0578 43.0375 34.8743 43.8209 34.6704 44.552C33.8475 47.503 32.7577 49.3042 31.736 49.4185C31.631 49.4146 31.526 49.4085 31.4214 49.4002C30.4314 49.1762 29.3857 47.4029 28.5843 44.5606C28.3785 43.8303 28.1925 43.0473 28.0278 42.2196ZM22.8435 42.2272L26.9322 42.2214C27.1125 43.1546 27.3183 44.0352 27.5487 44.8523C28.0414 46.5996 28.6168 47.9575 29.2593 48.9032C27.3244 48.1577 25.5414 46.6267 24.0762 44.4157C23.6226 43.7312 23.211 42.9992 22.8435 42.2272ZM17.8933 42.234L21.6607 42.229C22.1013 43.2173 22.6088 44.1485 23.1796 45.0098C24.1286 46.4417 25.2066 47.6134 26.3758 48.5011C23.8898 47.6559 21.6108 46.2466 19.6969 44.3384C19.0352 43.6784 18.4331 42.975 17.8933 42.234Z" fill="white"/>
</g>
</g>
<defs>
<clipPath id="clip0_2000_9592">
<rect width="64" height="64" fill="white"/>
</clipPath>
</defs>
</svg>
