<svg width="80" height="60" viewBox="0 0 80 60" fill="none" xmlns="http://www.w3.org/2000/svg">
<g clip-path="url(#clip0_2000_9586)">
<path fill-rule="evenodd" clip-rule="evenodd" d="M0 0H80V60H0V0Z" fill="#999999"/>
<mask id="mask0_2000_9586" style="mask-type:luminance" maskUnits="userSpaceOnUse" x="21" y="11" width="38" height="38">
<path d="M58.5 48.5H21.5V11.5H58.5V48.5Z" fill="white"/>
</mask>
<g mask="url(#mask0_2000_9586)">
<path d="M39.9996 11.5004C39.8927 11.4991 39.7854 11.5013 39.6781 11.5032C39.6462 11.5017 39.6127 11.5025 39.5825 11.501C39.5188 11.501 39.4557 11.5043 39.3928 11.5103C33.2473 11.7095 27.851 14.9201 24.6333 19.7092C24.5973 19.7491 24.5669 19.7943 24.5439 19.8435C22.6159 22.7677 21.4946 26.2691 21.5 30.0265C21.5072 34.968 23.438 39.6109 26.9373 43.0998C30.2988 46.4518 34.7219 48.3532 39.4456 48.4913C39.5085 48.4969 39.5806 48.493 39.6357 48.5C39.6682 48.5 39.7007 48.4991 39.733 48.4973C39.8308 48.4989 39.9282 48.4991 40.0259 48.4993C44.9674 48.4924 49.6103 46.5614 53.0994 43.0624C56.5887 39.5634 58.5062 34.9148 58.4992 29.9733C58.4938 26.2198 57.3641 22.7247 55.4312 19.8073C55.4064 19.752 55.3725 19.702 55.3314 19.6585C52.003 14.7389 46.3712 11.5008 39.9996 11.5004ZM39.3722 12.6012C39.4762 12.5926 39.5804 12.5863 39.6851 12.582C40.7077 12.6922 41.8027 14.4904 42.6344 17.4405C42.8175 18.0895 42.9844 18.7803 43.1353 19.5068L36.0535 19.517C36.2019 18.7898 36.367 18.0986 36.5481 17.4491C37.3417 14.6038 38.3827 12.8273 39.3722 12.6012ZM44.2324 19.5053C44.0651 18.6736 43.8774 17.8856 43.6698 17.1488C43.1195 15.1969 42.466 13.731 41.7312 12.7828C44.6953 13.4907 47.2847 15.9725 49.0245 19.4985L44.2324 19.5053ZM30.9447 19.5244C32.475 16.4006 34.673 14.092 37.2104 13.105C36.5711 14.0527 35.9993 15.4121 35.5119 17.1604C35.3065 17.8976 35.1209 18.6867 34.9563 19.5187L30.9447 19.5244ZM50.1962 19.4967C49.021 16.9683 47.4349 14.8951 45.5837 13.4938C48.918 14.6249 51.8026 16.7398 53.8896 19.4914L50.1962 19.4967ZM26.0796 19.5314C28.1588 16.7738 31.0369 14.6505 34.3676 13.5099C32.5206 14.9166 30.9407 16.9941 29.7726 19.5261L26.0796 19.5314ZM50.6603 20.5716L54.6431 20.566C56.3063 23.1391 57.3104 26.1762 57.4145 29.4372L52.3966 29.4444C52.3298 26.2116 51.7047 23.1848 50.6603 20.5716ZM44.4326 20.5808L49.5149 20.5734C50.5976 23.1472 51.2517 26.1847 51.321 29.4458L45.1802 29.4548C45.1496 26.2804 44.891 23.2423 44.4326 20.5808ZM35.8502 20.5927L43.3413 20.582C43.8095 23.2247 44.0735 26.2671 44.1043 29.4561L35.1125 29.4692C35.1341 26.2802 35.3898 23.237 35.8502 20.5927ZM30.4577 20.6005L34.7591 20.5944C34.308 23.2578 34.0584 26.2959 34.037 29.4707L28.6766 29.4783C28.7366 26.2171 29.3824 23.1774 30.4577 20.6005ZM25.3295 20.6081L29.3119 20.6024C28.2753 23.2185 27.6588 26.2469 27.6011 29.4801L22.5831 29.4869C22.6778 26.2256 23.6733 23.1856 25.3295 20.6081ZM52.3983 30.52L57.4163 30.513C57.3279 33.5964 56.4416 36.5438 54.8557 39.1172L50.8095 39.1227C51.7958 36.5198 52.3446 33.5814 52.3983 30.52ZM45.1818 30.5303L51.3226 30.5215C51.2663 33.6056 50.6891 36.5512 49.6549 39.1244L44.5051 39.1318C44.9274 36.5354 45.1611 33.5962 45.1818 30.5303ZM35.1143 30.5447L44.106 30.5319C44.0852 33.611 43.8463 36.5539 43.4153 39.1334L35.8297 39.1443C35.3912 36.5662 35.1439 33.6239 35.1143 30.5447ZM28.6784 30.5541L34.0385 30.5463C34.0677 33.612 34.31 36.5508 34.7396 39.146L30.3707 39.1523C29.3288 36.5819 28.7432 33.6379 28.6784 30.5541ZM22.5845 30.5626L27.6023 30.5556C27.6648 33.6169 28.2221 36.5535 29.2161 39.154L25.1696 39.1595C23.5765 36.5909 22.6819 33.6461 22.5845 30.5626ZM50.368 40.199L54.1354 40.1939C53.5975 40.9361 52.9975 41.6414 52.338 42.3029C50.4295 44.2168 48.1548 45.6327 45.6709 46.4847C46.8376 45.5938 47.9124 44.4189 48.8572 42.9847C49.4253 42.1216 49.9302 41.1886 50.368 40.199ZM44.3156 40.2079L49.185 40.2007C48.8196 40.974 48.4101 41.707 47.9585 42.3929C46.2493 44.9883 44.1012 46.6514 41.7805 47.2122C42.5123 46.2615 43.162 44.794 43.7066 42.8406C43.9347 42.0227 44.1382 41.1415 44.3156 40.2079ZM36.0278 40.2196L43.2202 40.2093C43.0578 41.0375 42.8743 41.8209 42.6704 42.552C41.8475 45.503 40.7577 47.3042 39.736 47.4185C39.631 47.4146 39.526 47.4085 39.4214 47.4002C38.4314 47.1762 37.3857 45.4029 36.5843 42.5606C36.3785 41.8303 36.1925 41.0473 36.0278 40.2196ZM30.8435 40.2272L34.9322 40.2214C35.1125 41.1546 35.3183 42.0352 35.5487 42.8523C36.0414 44.5996 36.6168 45.9575 37.2593 46.9032C35.3244 46.1577 33.5414 44.6267 32.0762 42.4157C31.6226 41.7312 31.211 40.9992 30.8435 40.2272ZM25.8933 40.234L29.6607 40.229C30.1013 41.2173 30.6088 42.1485 31.1796 43.0098C32.1286 44.4417 33.2066 45.6134 34.3758 46.5011C31.8898 45.6559 29.6108 44.2466 27.6969 42.3384C27.0352 41.6784 26.4331 40.975 25.8933 40.234Z" fill="white"/>
</g>
</g>
<defs>
<clipPath id="clip0_2000_9586">
<rect width="80" height="60" fill="white"/>
</clipPath>
</defs>
</svg>
