<svg width="22" height="22" viewBox="0 0 22 22" fill="none" xmlns="http://www.w3.org/2000/svg">
<path d="M5.17048 18.1878H2.31334C1.93446 18.1878 1.57109 18.0373 1.30318 17.7694C1.03528 17.5015 0.884766 17.1381 0.884766 16.7592V11.0449C0.884766 10.666 1.03528 10.3027 1.30318 10.0348C1.57109 9.76686 1.93446 9.61635 2.31334 9.61635H19.4562C19.8351 9.61635 20.1984 9.76686 20.4663 10.0348C20.7343 10.3027 20.8848 10.666 20.8848 11.0449V16.7592C20.8848 17.1381 20.7343 17.5015 20.4663 17.7694C20.1984 18.0373 19.8351 18.1878 19.4562 18.1878H16.5991M5.17048 9.61635V2.47349C5.17048 2.09461 5.32099 1.73125 5.5889 1.46334C5.85681 1.19543 6.22017 1.04492 6.59905 1.04492H15.1705C15.5494 1.04492 15.9127 1.19543 16.1806 1.46334C16.4485 1.73125 16.5991 2.09461 16.5991 2.47349V9.61635M5.17048 15.3306H16.5991V21.0449H5.17048V15.3306Z" stroke="#2F3F47"/>
</svg>
