<svg width="80" height="60" viewBox="0 0 80 60" fill="none" xmlns="http://www.w3.org/2000/svg">
<g clip-path="url(#clip0_2000_8280)">
<mask id="mask0_2000_8280" style="mask-type:luminance" maskUnits="userSpaceOnUse" x="0" y="0" width="80" height="60">
<path d="M0 0H80V60H0V0Z" fill="white"/>
</mask>
<g mask="url(#mask0_2000_8280)">
<path fill-rule="evenodd" clip-rule="evenodd" d="M-2.5 0H87.5V60H-2.5V0Z" fill="white"/>
<path fill-rule="evenodd" clip-rule="evenodd" d="M-2.5 0H87.5V30H-2.5V0Z" fill="#DF0000"/>
<path fill-rule="evenodd" clip-rule="evenodd" d="M18.25 5.02502C15.8823 5.53385 13.7617 6.84181 12.2443 8.72929C10.7269 10.6168 9.90502 12.9688 9.91675 15.3906C9.92848 17.8124 10.773 20.1564 12.3087 22.0291C13.8443 23.9018 15.9774 25.1891 18.35 25.675C16.9908 26.0683 15.5674 26.1894 14.1613 26.0314C12.7553 25.8734 11.3942 25.4393 10.1562 24.7542C8.91829 24.069 7.82777 23.1462 6.94723 22.0386C6.06669 20.9311 5.41346 19.6606 5.025 18.3C4.25346 15.5651 4.59616 12.636 5.97817 10.1531C7.36018 7.67015 9.66906 5.83541 12.4 5.05002C14.4 4.47502 16.25 4.46252 18.2625 5.02502H18.25Z" fill="white"/>
<path fill-rule="evenodd" clip-rule="evenodd" d="M16.625 13.75L17.2375 15.625L15.6125 14.475L14.0125 15.65L14.6 13.75L13 12.5875L14.9875 12.5625L15.6125 10.6875L16.2375 12.5625H18.2125L16.625 13.75ZM18.8125 20.25L19.4375 22.1375L17.8125 20.9875L16.2 22.15L16.8 20.2625L15.2 19.0875L17.1875 19.075L17.8 17.1875L18.425 19.0625H20.425L18.8125 20.25ZM26.125 20.2L26.7375 22.1L25.1125 20.9375L23.5125 22.1L24.1 20.2125L22.5 19.05L24.4875 19.025L25.1125 17.15L25.7375 19.025H27.7125L26.125 20.2ZM28.3 13.75L28.9125 15.6375L27.2875 14.4875L25.6875 15.65L26.2875 13.7625L24.675 12.5875L26.675 12.575L27.275 10.6875L27.9 12.5625H29.9L28.3 13.75ZM22.5125 9.46252L23.1375 11.3625L21.5125 10.2L19.9 11.375L20.5 9.47502L18.9 8.30002L20.875 8.28752L21.5 6.40002L22.125 8.27502H24.125L22.5125 9.46252Z" fill="white"/>
</g>
</g>
<defs>
<clipPath id="clip0_2000_8280">
<rect width="80" height="60" fill="white"/>
</clipPath>
</defs>
</svg>
