<svg width="64" height="64" viewBox="0 0 64 64" fill="none" xmlns="http://www.w3.org/2000/svg">
<g clip-path="url(#clip0_2000_8271)">
<mask id="mask0_2000_8271" style="mask-type:luminance" maskUnits="userSpaceOnUse" x="0" y="0" width="64" height="65">
<path d="M0.00162125 0H63.9962V64.0036H0.00162125V0Z" fill="white"/>
</mask>
<g mask="url(#mask0_2000_8271)">
<path fill-rule="evenodd" clip-rule="evenodd" d="M-2.5 0H93.5009V64.0036H-2.5V0Z" fill="white"/>
<path fill-rule="evenodd" clip-rule="evenodd" d="M-2.5 0H93.5009V31.9973H-2.5V0Z" fill="#DF0000"/>
<path fill-rule="evenodd" clip-rule="evenodd" d="M19.6443 5.36451C17.118 5.90581 14.8549 7.29997 13.2351 9.31284C11.6153 11.3257 10.7375 13.8347 10.7492 16.4183C10.7609 19.0019 11.6612 21.5029 13.2991 23.5011C14.937 25.4992 17.2126 26.8729 19.7437 27.3914C18.0394 27.8902 16.2426 27.9861 14.495 27.6716C12.7474 27.3571 11.0967 26.6408 9.67331 25.5792C8.24987 24.5177 7.09258 23.1399 6.29273 21.5545C5.49289 19.9692 5.07238 18.2196 5.06437 16.4439C5.05636 14.6683 5.46108 12.915 6.24659 11.3225C7.0321 9.73 8.17691 8.34181 9.59072 7.26745C11.0045 6.19308 12.6486 5.46194 14.3934 5.1317C16.1381 4.80146 17.9357 4.88116 19.6443 5.36451Z" fill="white"/>
<path fill-rule="evenodd" clip-rule="evenodd" d="M15.7429 14.6665L14.036 13.4202L16.1583 13.4022L16.8085 11.3882L17.4859 13.4022H19.5992L17.9013 14.6665L18.5516 16.6805L16.8266 15.4432L15.1107 16.6895L15.7429 14.6665ZM18.091 21.6115L16.375 20.3652L18.4974 20.3471L19.1566 18.3332L19.8249 20.3381H21.9473L20.2313 21.6024L20.8906 23.6164L19.1747 22.3881L17.4588 23.6344L18.091 21.6115ZM25.8848 21.5573L24.1689 20.311L26.2822 20.2929L26.9415 18.279L27.6098 20.2929H29.7411L28.0342 21.5573L28.6935 23.5712L26.9686 22.334L25.2526 23.5803L25.8848 21.5573ZM28.2058 14.6756L26.4899 13.4293L28.6122 13.4112L29.2625 11.3973L29.9398 13.4022H32.0531L30.3552 14.6665L31.0055 16.6805L29.2805 15.4522L27.5646 16.6985L28.2058 14.6756ZM22.0376 10.1148L20.3216 8.86855L22.444 8.85049L23.1032 6.83655L23.7715 8.85049H25.8939L24.1779 10.1148L24.8372 12.1198L23.1213 10.8915L21.4054 12.1378L22.0376 10.1148Z" fill="white"/>
</g>
</g>
<defs>
<clipPath id="clip0_2000_8271">
<rect width="64" height="64" fill="white"/>
</clipPath>
</defs>
</svg>
