<svg width="29" height="29" viewBox="0 0 29 29" fill="none" xmlns="http://www.w3.org/2000/svg"><path d="M22.3108 13.4192C17.8308 10.7592 10.3408 10.4792 6.07078 11.8092C5.37078 12.0192 4.67078 11.5992 4.46078 10.9692C4.25078 10.2692 4.67078 9.56923 5.30078 9.35923C10.2708 7.88923 18.4608 8.16923 23.6408 11.2492C24.2708 11.5992 24.4808 12.4392 24.1308 13.0692C23.7808 13.5592 22.9408 13.7692 22.3108 13.4192M22.1708 17.3392C21.8208 17.8292 21.1908 18.0392 20.7008 17.6892C16.9208 15.3792 11.1808 14.6792 6.77078 16.0792C6.21078 16.2192 5.58078 15.9392 5.44078 15.3792C5.30078 14.8192 5.58078 14.1892 6.14078 14.0492C11.2508 12.5092 17.5508 13.2792 21.8908 15.9392C22.3108 16.1492 22.5208 16.8492 22.1708 17.3392ZM20.4908 21.1892C20.2108 21.6092 19.7208 21.7492 19.3008 21.4692C16.0108 19.4392 11.8808 19.0192 6.98078 20.1392C6.49078 20.2792 6.07078 19.9292 5.93078 19.5092C5.79078 19.0192 6.14078 18.5992 6.56078 18.4592C11.8808 17.2692 16.5008 17.7592 20.1408 19.9992C20.6308 20.2092 20.7008 20.7692 20.4908 21.1892ZM14.0508 0.959229C12.2123 0.959229 10.3918 1.32135 8.69321 2.02492C6.99465 2.72848 5.45131 3.75971 4.15129 5.05973C1.52578 7.68524 0.0507813 11.2462 0.0507812 14.9592C0.0507813 18.6723 1.52578 22.2332 4.15129 24.8587C5.45131 26.1587 6.99465 27.19 8.69321 27.8935C10.3918 28.5971 12.2123 28.9592 14.0508 28.9592C17.7638 28.9592 21.3248 27.4842 23.9503 24.8587C26.5758 22.2332 28.0508 18.6723 28.0508 14.9592C28.0508 13.1207 27.6887 11.3002 26.9851 9.60166C26.2815 7.9031 25.2503 6.35975 23.9503 5.05973C22.6503 3.75971 21.1069 2.72848 19.4083 2.02492C17.7098 1.32135 15.8893 0.959229 14.0508 0.959229V0.959229Z" fill="#2F3F47"/></svg>