<svg width="58" height="17" viewBox="0 0 58 17" fill="none" xmlns="http://www.w3.org/2000/svg"><path d="M5.54835 7.07217C8.30881 7.7472 9.43456 8.79504 9.43456 10.6897C9.43456 12.9314 7.73105 14.38 5.09486 14.38C3.23136 14.38 1.50466 13.7141 0.100457 12.4537C0.0404407 12.4004 0.0338592 12.3084 0.0858842 12.2468L1.32634 10.7623C1.35172 10.7316 1.38823 10.713 1.42804 10.7097C1.46596 10.7075 1.50701 10.7194 1.53694 10.7453C2.7437 11.7961 3.8226 12.2441 5.145 12.2441C6.33578 12.2441 7.07573 11.726 7.07573 10.8926C7.07573 10.1404 6.70983 9.71982 4.5417 9.21764C1.99436 8.59855 0.520262 7.79652 0.520262 5.53145C0.520262 3.41922 2.2291 1.94294 4.67552 1.94294C6.33938 1.94294 7.76286 2.43881 9.02698 3.45877C9.08825 3.50824 9.10063 3.59711 9.05518 3.66172L7.94887 5.22986C7.92552 5.26295 7.89058 5.28469 7.85093 5.29068C7.81129 5.29698 7.77101 5.28737 7.73889 5.26326C6.67661 4.4669 5.66369 4.08007 4.64199 4.08007C3.58801 4.08007 2.8791 4.58933 2.8791 5.34646C2.8791 6.14754 3.2826 6.52886 5.54835 7.07217ZM17.3124 9.61141C17.3124 8.03728 16.3099 6.89522 14.9292 6.89522C13.5419 6.89522 12.4954 8.0625 12.4954 9.61141C12.4954 11.1605 13.5419 12.3276 14.9292 12.3276C16.3324 12.3276 17.3124 11.2112 17.3124 9.61141ZM15.3988 4.82522C17.5219 4.82522 19.6713 6.46915 19.6713 9.61141C19.6713 12.753 17.5219 14.3965 15.3988 14.3965C14.2564 14.3965 13.319 13.9704 12.546 13.0981V16.7588C12.546 16.8412 12.4796 16.9083 12.3976 16.9083H10.369C10.287 16.9083 10.2207 16.8412 10.2207 16.7588V5.16131C10.2207 5.0789 10.287 5.01178 10.369 5.01178H12.3976C12.4796 5.01178 12.546 5.0789 12.546 5.16131V6.20506C13.3189 5.27776 14.2561 4.82522 15.3988 4.82522ZM25.1806 12.3443C26.6489 12.3443 27.7146 11.2098 27.7146 9.6456C27.7146 8.0866 26.6108 6.9116 25.1471 6.9116C23.6883 6.9116 22.6298 8.04705 22.6298 9.61141C22.6298 11.1693 23.7262 12.3443 25.1806 12.3443ZM25.1806 4.82522C27.9058 4.82522 30.0398 6.92752 30.0398 9.61141C30.0398 12.3043 27.8911 14.4143 25.1471 14.4143C22.4316 14.4143 20.3042 12.3194 20.3042 9.6456C20.3042 6.94233 22.4463 4.82522 25.1806 4.82522ZM35.8788 5.01178C35.9607 5.01178 36.0267 5.0789 36.0267 5.16131V6.9146C36.0267 6.99685 35.9607 7.06397 35.8788 7.06397H33.6462V11.281C33.6462 11.9471 33.9368 12.2441 34.5876 12.2441C35.0099 12.2441 35.3877 12.1529 35.7785 11.9551C35.8238 11.9326 35.8788 11.934 35.923 11.9619C35.9667 11.989 35.9935 12.0375 35.9935 12.089V13.7587C35.9935 13.8119 35.9646 13.862 35.9184 13.888C35.3494 14.2125 34.7457 14.3636 34.0179 14.3636C32.2283 14.3636 31.3208 13.4341 31.3208 11.6007V7.06397H30.3453C30.2635 7.06397 30.1976 6.99685 30.1976 6.9146V5.16131C30.1976 5.0789 30.2635 5.01178 30.3453 5.01178H31.3208V2.71661C31.3208 2.6342 31.3875 2.56723 31.4697 2.56723H33.4982C33.5801 2.56723 33.6462 2.6342 33.6462 2.71661V5.01178H35.8788ZM43.657 5.02076H47.1228C47.1843 5.02076 47.2397 5.05889 47.2613 5.11688L49.6311 11.3351L51.7947 5.12097C51.8154 5.0611 51.8721 5.02076 51.9352 5.02076H54.0473C54.0965 5.02076 54.1414 5.04518 54.1693 5.08552C54.1974 5.12649 54.2026 5.17833 54.185 5.22434L50.6653 14.3697C49.9352 16.2574 49.1072 16.9592 47.6092 16.9592C46.8084 16.9592 46.1603 16.7924 45.4424 16.4014C45.3738 16.3642 45.3459 16.2801 45.3787 16.2084L46.0663 14.6915C46.0827 14.6535 46.1153 14.6247 46.154 14.6108C46.1932 14.5987 46.236 14.602 46.2722 14.622C46.657 14.8338 47.0334 14.9411 47.3909 14.9411C47.8331 14.9411 48.157 14.7948 48.4864 14.0598L45.5847 7.06397H43.6905V14.0617C43.6905 14.1441 43.6238 14.211 43.5418 14.211H41.5131C41.4314 14.211 41.3652 14.1441 41.3652 14.0617V7.06397H40.3905C40.3087 7.06397 40.2417 6.99685 40.2417 6.9146V5.15233C40.2417 5.07008 40.3087 5.00295 40.3905 5.00295H41.3652V4.57121C41.3652 2.56487 42.3556 1.50379 44.2296 1.50379C44.9996 1.50379 45.5139 1.62733 45.9158 1.74739C45.9787 1.76678 46.0207 1.82508 46.0207 1.89063V3.60972C46.0207 3.65762 45.9986 3.70284 45.9594 3.73105C45.9213 3.75925 45.8724 3.76666 45.8256 3.75185C45.4451 3.62421 45.1054 3.53976 44.6824 3.53976C43.9732 3.53976 43.657 3.90957 43.657 4.73887V5.02076ZM39.1477 5.01178C39.2295 5.01178 39.2963 5.0789 39.2963 5.16131V14.0617C39.2963 14.1441 39.2295 14.211 39.1477 14.211H37.1189C37.037 14.211 36.9704 14.1441 36.9704 14.0617V5.16131C36.9704 5.0789 37.037 5.01178 37.1189 5.01178H39.1477ZM38.1436 0.959229C38.947 0.959229 39.5986 1.61362 39.5986 2.4218C39.5986 3.23029 38.947 3.88531 38.1436 3.88531C37.34 3.88531 36.6877 3.23029 36.6877 2.4218C36.6877 1.61362 37.34 0.959229 38.1436 0.959229ZM56.0001 5.89717H55.6284V6.37382H56.0001C56.1856 6.37382 56.2964 6.28258 56.2964 6.13525C56.2964 5.98021 56.1856 5.89717 56.0001 5.89717ZM56.2411 6.57708L56.6449 7.14559H56.3044L55.9408 6.62419H55.6284V7.14559H55.3433V5.63875H56.0117C56.3597 5.63875 56.5888 5.81775 56.5888 6.11934C56.5888 6.36641 56.4468 6.51736 56.2411 6.57708ZM55.9245 5.1372C55.1932 5.1372 54.6397 5.72179 54.6397 6.43763C54.6397 7.153 55.1893 7.72987 55.917 7.72987C56.6482 7.72987 57.2021 7.14559 57.2021 6.42944C57.2021 5.71391 56.6523 5.1372 55.9245 5.1372ZM55.917 7.87341C55.1141 7.87341 54.4893 7.22501 54.4893 6.43763C54.4893 5.6501 55.1222 4.99445 55.9245 4.99445C56.7273 4.99445 57.3523 5.64269 57.3523 6.42944C57.3523 7.21682 56.7198 7.87341 55.917 7.87341Z" fill="#2F3F47"/></svg>